<?xml version="1.0"?>
<svg xmlns="http://www.w3.org/2000/svg" height="1200" width="1200">
<g transform="translate(150,175)">
<polygon points="0,150 450,0 900,150 450,300" style="fill:#333333"/>
<polygon points="0,150 0,700 450,850 450,300" style="fill:#1E1E1E"/>
<polygon points="900,150 900,700 450,850 450,300" style="fill:#161616"/>
<polygon points="450,050 150,150 300,200 450,150" style="fill:#0A0A0A"/>
<polygon points="450,050 750,150 600,200 450,150" style="fill:#111111"/>
<polygon points="450,250 600,200 450,150 300,200" style="fill:#000000"/>
<polygon points="112.5,279.15 112.5,645.75 337.5,720.75 337.5,629.1 187.5,579.1 187.5,395.8 337.5,445.8 337.5,354.15" style="fill:#fff"/>
<polygon points="637.5,420.8 712.5,445.8 712.5,629.1 637.5,604.1 637.5,695.75 787.5,745.75 787.5,379.15 637.5,329.15" style="fill:#3A3A3A"/>
<polygon points="637.5,604.1 712.5,579.1 712.5,629.1" style="fill:#4D4D4D"/>
<polygon points="712.5,304.15 637.5,329.15 787.5,379.15 862.5,354.15" style="fill:#717171"/>
<polygon points="787.5,379.15 862.5,354.15 862.5,720.75 787.5,745.75" style="fill:#222222"/>
</g>
</svg>
